<svg xmlns="http://www.w3.org/2000/svg" width="356" height="187" fill="none" viewBox="0 0 356 187"><path fill="#F5F5F5" d="M36.672 72.384C31.36 72.384 26.464 71.552 21.984 69.888C17.568 68.16 13.696 65.728 10.368 62.592C7.104 59.456 4.544 55.776 2.688 51.552C0.896 47.328 0 42.688 0 37.632C0 32.576 0.896 27.936 2.688 23.712C4.544 19.488 7.136 15.808 10.464 12.672C13.792 9.536 17.696 7.136 22.176 5.472C26.656 3.744 31.584 2.88 36.96 2.88C42.912 2.88 48.256 3.872 52.992 5.856C57.792 7.84 61.824 10.72 65.088 14.496L55.104 23.712C52.672 21.152 50.016 19.264 47.136 18.048C44.256 16.768 41.12 16.128 37.728 16.128C34.464 16.128 31.488 16.64 28.8 17.664C26.112 18.688 23.776 20.16 21.792 22.08C19.872 24 18.368 26.272 17.28 28.896C16.256 31.52 15.744 34.432 15.744 37.632C15.744 40.768 16.256 43.648 17.28 46.272C18.368 48.896 19.872 51.2 21.792 53.184C23.776 55.104 26.08 56.576 28.704 57.6C31.392 58.624 34.336 59.136 37.536 59.136C40.608 59.136 43.584 58.656 46.464 57.696C49.408 56.672 52.256 54.976 55.008 52.608L63.84 63.84C60.192 66.592 55.936 68.704 51.072 70.176C46.272 71.648 41.472 72.384 36.672 72.384ZM49.632 61.824V36.576H63.84V63.84L49.632 61.824Z"/><path fill="#F5F5F5" d="M108.91 71.232V61.152L107.951 58.944V40.896C107.951 37.696 106.959 35.2 104.975 33.408C103.055 31.616 100.079 30.72 96.0465 30.72C93.2945 30.72 90.5745 31.168 87.8865 32.064C85.2625 32.896 83.0225 34.048 81.1665 35.52L75.7905 25.056C78.6065 23.072 81.9985 21.536 85.9665 20.448C89.9345 19.36 93.9665 18.816 98.0625 18.816C105.935 18.816 112.046 20.672 116.398 24.384C120.75 28.096 122.927 33.888 122.927 41.76V71.232H108.91ZM93.1665 72C89.1345 72 85.6785 71.328 82.7985 69.984C79.9185 68.576 77.7105 66.688 76.1745 64.32C74.6385 61.952 73.8705 59.296 73.8705 56.352C73.8705 53.28 74.6065 50.592 76.0785 48.288C77.6145 45.984 80.0145 44.192 83.2785 42.912C86.5425 41.568 90.7985 40.896 96.0465 40.896H109.774V49.632H97.6785C94.1585 49.632 91.7265 50.208 90.3825 51.36C89.1025 52.512 88.4625 53.952 88.4625 55.68C88.4625 57.6 89.1985 59.136 90.6705 60.288C92.2065 61.376 94.2865 61.92 96.9105 61.92C99.4065 61.92 101.647 61.344 103.631 60.192C105.615 58.976 107.055 57.216 107.951 54.912L110.255 61.824C109.167 65.152 107.182 67.68 104.302 69.408C101.422 71.136 97.7105 72 93.1665 72Z"/><path fill="#F5F5F5" d="M136.48 71.232V19.584H150.785V34.176L148.768 29.952C150.304 26.304 152.769 23.552 156.161 21.696C159.553 19.776 163.68 18.816 168.544 18.816V32.64C167.904 32.576 167.328 32.544 166.816 32.544C166.304 32.48 165.761 32.448 165.185 32.448C161.089 32.448 157.76 33.632 155.201 36C152.705 38.304 151.456 41.92 151.456 46.848V71.232H136.48Z"/><path fill="#F5F5F5" d="M199.616 72C195.328 72 191.488 71.168 188.096 69.504C184.768 67.84 182.176 65.312 180.32 61.92C178.464 58.464 177.536 54.08 177.536 48.768V19.584H192.512V46.56C192.512 50.848 193.408 54.016 195.2 56.064C197.056 58.048 199.648 59.04 202.976 59.04C205.28 59.04 207.328 58.56 209.12 57.6C210.912 56.576 212.32 55.04 213.344 52.992C214.368 50.88 214.88 48.256 214.88 45.12V19.584H229.856V71.232H215.648V57.024L218.24 61.152C216.512 64.736 213.952 67.456 210.56 69.312C207.232 71.104 203.584 72 199.616 72Z"/><path fill="#F5F5F5" d="M265.906 72C261.042 72 256.659 70.912 252.755 68.736C248.851 66.496 245.747 63.392 243.443 59.424C241.203 55.456 240.083 50.784 240.083 45.408C240.083 39.968 241.203 35.264 243.443 31.296C245.747 27.328 248.851 24.256 252.755 22.08C256.659 19.904 261.042 18.816 265.906 18.816C270.258 18.816 274.067 19.776 277.331 21.696C280.595 23.616 283.122 26.528 284.914 30.432C286.706 34.336 287.603 39.328 287.603 45.408C287.603 51.424 286.738 56.416 285.01 60.384C283.282 64.288 280.786 67.2 277.522 69.12C274.322 71.04 270.45 72 265.906 72ZM268.499 59.712C270.931 59.712 273.138 59.136 275.122 57.984C277.106 56.832 278.675 55.2 279.827 53.088C281.043 50.912 281.651 48.352 281.651 45.408C281.651 42.4 281.043 39.84 279.827 37.728C278.675 35.616 277.106 33.984 275.122 32.832C273.138 31.68 270.931 31.104 268.499 31.104C266.003 31.104 263.763 31.68 261.779 32.832C259.795 33.984 258.195 35.616 256.979 37.728C255.827 39.84 255.251 42.4 255.251 45.408C255.251 48.352 255.827 50.912 256.979 53.088C258.195 55.2 259.795 56.832 261.779 57.984C263.763 59.136 266.003 59.712 268.499 59.712ZM282.035 71.232V60.672L282.323 45.312L281.362 30.048V0H296.339V71.232H282.035Z"/><path fill="#F5F5F5" d="M341.879 71.232V61.152L340.919 58.944V40.896C340.919 37.696 339.927 35.2 337.943 33.408C336.023 31.616 333.047 30.72 329.015 30.72C326.263 30.72 323.543 31.168 320.855 32.064C318.231 32.896 315.991 34.048 314.135 35.52L308.759 25.056C311.575 23.072 314.967 21.536 318.935 20.448C322.903 19.36 326.935 18.816 331.031 18.816C338.903 18.816 345.015 20.672 349.367 24.384C353.719 28.096 355.895 33.888 355.895 41.76V71.232H341.879ZM326.135 72C322.103 72 318.647 71.328 315.767 69.984C312.887 68.576 310.679 66.688 309.143 64.32C307.607 61.952 306.839 59.296 306.839 56.352C306.839 53.28 307.575 50.592 309.047 48.288C310.583 45.984 312.983 44.192 316.247 42.912C319.511 41.568 323.767 40.896 329.015 40.896H342.743V49.632H330.647C327.127 49.632 324.695 50.208 323.351 51.36C322.071 52.512 321.431 53.952 321.431 55.68C321.431 57.6 322.167 59.136 323.639 60.288C325.175 61.376 327.255 61.92 329.879 61.92C332.375 61.92 334.615 61.344 336.599 60.192C338.583 58.976 340.023 57.216 340.919 54.912L343.223 61.824C342.135 65.152 340.151 67.68 337.271 69.408C334.391 71.136 330.679 72 326.135 72Z"/><path fill="#F5F5F5" d="M50.304 119.032H65.856V186.232H50.304V119.032ZM19.776 186.232H4.224V119.032H19.776V186.232ZM51.456 158.68H18.624V145.528H51.456V158.68Z"/><path fill="#F5F5F5" d="M112.379 186.232V176.152L111.419 173.944V155.896C111.419 152.696 110.427 150.2 108.443 148.408C106.523 146.616 103.547 145.72 99.5153 145.72C96.7633 145.72 94.0432 146.168 91.3552 147.064C88.7312 147.896 86.4913 149.048 84.6353 150.52L79.2592 140.056C82.0752 138.072 85.4672 136.536 89.4352 135.448C93.4032 134.36 97.4353 133.816 101.531 133.816C109.403 133.816 115.515 135.672 119.867 139.384C124.219 143.096 126.395 148.888 126.395 156.76V186.232H112.379ZM96.6353 187C92.6033 187 89.1473 186.328 86.2673 184.984C83.3872 183.576 81.1792 181.688 79.6432 179.32C78.1072 176.952 77.3392 174.296 77.3392 171.352C77.3392 168.28 78.0752 165.592 79.5472 163.288C81.0832 160.984 83.4833 159.192 86.7473 157.912C90.0113 156.568 94.2673 155.896 99.5153 155.896H113.243V164.632H101.147C97.6273 164.632 95.1952 165.208 93.8512 166.36C92.5712 167.512 91.9313 168.952 91.9313 170.68C91.9313 172.6 92.6673 174.136 94.1393 175.288C95.6753 176.376 97.7552 176.92 100.379 176.92C102.875 176.92 105.115 176.344 107.099 175.192C109.083 173.976 110.523 172.216 111.419 169.912L113.723 176.824C112.635 180.152 110.651 182.68 107.771 184.408C104.891 186.136 101.179 187 96.6353 187Z"/><path fill="#F5F5F5" d="M165.284 187C159.716 187 154.756 185.88 150.404 183.64C146.052 181.336 142.628 178.168 140.132 174.136C137.7 170.104 136.484 165.528 136.484 160.408C136.484 155.224 137.7 150.648 140.132 146.68C142.628 142.648 146.052 139.512 150.404 137.272C154.756 134.968 159.716 133.816 165.284 133.816C170.724 133.816 175.46 134.968 179.492 137.272C183.524 139.512 186.5 142.744 188.42 146.968L176.804 153.208C175.46 150.776 173.764 148.984 171.716 147.832C169.732 146.68 167.556 146.104 165.188 146.104C162.628 146.104 160.324 146.68 158.276 147.832C156.228 148.984 154.596 150.616 153.38 152.728C152.228 154.84 151.652 157.4 151.652 160.408C151.652 163.416 152.228 165.976 153.38 168.088C154.596 170.2 156.228 171.832 158.276 172.984C160.324 174.136 162.628 174.712 165.188 174.712C167.556 174.712 169.732 174.168 171.716 173.08C173.764 171.928 175.46 170.104 176.804 167.608L188.42 173.944C186.5 178.104 183.524 181.336 179.492 183.64C175.46 185.88 170.724 187 165.284 187Z"/><path fill="#F5F5F5" d="M209.146 175.672L209.53 157.432L233.626 134.584H251.482L228.346 158.104L220.57 164.44L209.146 175.672ZM196.762 186.232V115H211.738V186.232H196.762ZM235.258 186.232L217.786 164.536L227.194 152.92L253.402 186.232H235.258Z"/><path fill="#F5F5F5" d="M275.825 187C271.409 187 267.153 186.488 263.057 185.464C259.025 184.376 255.825 183.032 253.457 181.432L258.449 170.68C260.817 172.152 263.601 173.368 266.801 174.328C270.065 175.224 273.265 175.672 276.401 175.672C279.857 175.672 282.289 175.256 283.697 174.424C285.169 173.592 285.905 172.44 285.905 170.968C285.905 169.752 285.329 168.856 284.177 168.28C283.089 167.64 281.617 167.16 279.761 166.84C277.905 166.52 275.857 166.2 273.617 165.88C271.441 165.56 269.233 165.144 266.993 164.632C264.753 164.056 262.705 163.224 260.849 162.136C258.993 161.048 257.489 159.576 256.337 157.72C255.249 155.864 254.705 153.464 254.705 150.52C254.705 147.256 255.633 144.376 257.489 141.88C259.409 139.384 262.161 137.432 265.745 136.024C269.329 134.552 273.617 133.816 278.609 133.816C282.129 133.816 285.713 134.2 289.361 134.968C293.009 135.736 296.049 136.856 298.481 138.328L293.489 148.984C290.993 147.512 288.465 146.52 285.905 146.008C283.409 145.432 280.977 145.144 278.609 145.144C275.281 145.144 272.849 145.592 271.313 146.488C269.777 147.384 269.009 148.536 269.009 149.944C269.009 151.224 269.553 152.184 270.641 152.824C271.793 153.464 273.297 153.976 275.153 154.36C277.009 154.744 279.025 155.096 281.201 155.416C283.441 155.672 285.681 156.088 287.921 156.664C290.161 157.24 292.177 158.072 293.969 159.16C295.825 160.184 297.329 161.624 298.481 163.48C299.633 165.272 300.209 167.64 300.209 170.584C300.209 173.784 299.249 176.632 297.329 179.128C295.409 181.56 292.625 183.48 288.977 184.888C285.393 186.296 281.009 187 275.825 187Z"/></svg>