<svg width="121" height="78" viewBox="0 0 121 78" fill="none" xmlns="http://www.w3.org/2000/svg">
<g filter="url(#filter0_di_649_222)">
<rect x="4" y="4" width="113" height="70" rx="10" fill="white"/>
<g filter="url(#filter1_i_649_222)">
<path d="M44.6016 23.5938V29.0078H44.2266C42.5078 29.0078 40.9844 29.2344 39.6562 29.6875C38.3438 30.1406 37.2266 30.7812 36.3047 31.6094C35.3672 32.4375 34.625 33.4297 34.0781 34.5859C33.5469 35.7422 33.2109 37.0312 33.0703 38.4531C33.4297 38.0625 33.8438 37.6797 34.3125 37.3047C34.7812 36.9141 35.3125 36.5625 35.9062 36.25C36.4844 35.9531 37.1172 35.7109 37.8047 35.5234C38.4922 35.3359 39.2344 35.2422 40.0312 35.2422C41.6562 35.2422 43.0703 35.5547 44.2734 36.1797C45.4922 36.7891 46.5078 37.6172 47.3203 38.6641C48.1328 39.7266 48.7344 40.9609 49.125 42.3672C49.5312 43.7578 49.7344 45.2266 49.7344 46.7734C49.7344 48.4297 49.4688 49.9688 48.9375 51.3906C48.4062 52.8125 47.6484 54.0469 46.6641 55.0938C45.6797 56.1406 44.4844 56.9688 43.0781 57.5781C41.6719 58.1719 40.0938 58.4688 38.3438 58.4688C36.5156 58.4688 34.8672 58.1328 33.3984 57.4609C31.9297 56.7734 30.6875 55.8281 29.6719 54.625C28.6406 53.4219 27.8438 52 27.2812 50.3594C26.7344 48.7031 26.4609 46.8984 26.4609 44.9453V42.4375C26.4609 39.7344 26.8281 37.2344 27.5625 34.9375C28.2969 32.625 29.3906 30.625 30.8438 28.9375C32.2969 27.2656 34.1016 25.9609 36.2578 25.0234C38.4141 24.0703 40.9062 23.5938 43.7344 23.5938H44.6016ZM38.1328 40.4688C37.5078 40.4688 36.9219 40.5625 36.375 40.75C35.8281 40.9219 35.3281 41.1719 34.875 41.5C34.4844 41.7969 34.125 42.1406 33.7969 42.5312C33.4844 42.9219 33.2188 43.3516 33 43.8203V45.7422C33 46.9922 33.125 48.0859 33.375 49.0234C33.6406 49.9609 34.0078 50.7344 34.4766 51.3438C34.9453 51.9688 35.5 52.4375 36.1406 52.75C36.7812 53.0625 37.4766 53.2188 38.2266 53.2188C38.9922 53.2188 39.6875 53.0625 40.3125 52.75C40.9375 52.4219 41.4688 51.9766 41.9062 51.4141C42.3438 50.8516 42.6797 50.1875 42.9141 49.4219C43.1484 48.6406 43.2656 47.7891 43.2656 46.8672C43.2656 45.9453 43.1484 45.0938 42.9141 44.3125C42.6797 43.5312 42.3438 42.8516 41.9062 42.2734C41.4688 41.7109 40.9297 41.2734 40.2891 40.9609C39.6641 40.6328 38.9453 40.4688 38.1328 40.4688ZM55.5187 54.2266C55.5187 53.0234 55.9172 52.0078 56.7141 51.1797C57.5109 50.3359 58.6203 49.9141 60.0422 49.9141C61.4484 49.9141 62.55 50.3281 63.3469 51.1562C64.1594 51.9844 64.5656 53.0078 64.5656 54.2266C64.5656 55.4453 64.1516 56.4609 63.3234 57.2734C62.5109 58.0703 61.4172 58.4688 60.0422 58.4688C58.6516 58.4688 57.55 58.0625 56.7375 57.25C55.925 56.4375 55.5187 55.4297 55.5187 54.2266ZM92.7797 45.0156C92.7797 47.2188 92.5219 49.1641 92.0062 50.8516C91.5062 52.5234 90.7797 53.9219 89.8266 55.0469C88.8734 56.1875 87.7094 57.0469 86.3344 57.625C84.9594 58.2031 83.4125 58.4922 81.6937 58.4922C79.9906 58.4922 78.4516 58.2031 77.0766 57.625C75.7016 57.0469 74.5375 56.1875 73.5844 55.0469C72.6156 53.9219 71.8656 52.5234 71.3344 50.8516C70.8187 49.1641 70.5609 47.2188 70.5609 45.0156V36.8594C70.5609 34.6562 70.8187 32.7188 71.3344 31.0469C71.85 29.3594 72.5922 27.9453 73.5609 26.8047C74.5141 25.6797 75.6703 24.8281 77.0297 24.25C78.4047 23.6719 79.9437 23.3828 81.6469 23.3828C83.3656 23.3828 84.9125 23.6719 86.2875 24.25C87.6625 24.8281 88.8344 25.6797 89.8031 26.8047C90.7562 27.9453 91.4906 29.3594 92.0062 31.0469C92.5219 32.7188 92.7797 34.6562 92.7797 36.8594V45.0156ZM77.1234 42.2031L86.2172 35.4297C86.1859 34.1484 86.0453 33.0547 85.7953 32.1484C85.5609 31.2266 85.2094 30.4922 84.7406 29.9453C84.3812 29.5078 83.9359 29.1875 83.4047 28.9844C82.8891 28.7656 82.3031 28.6562 81.6469 28.6562C80.9125 28.6562 80.2641 28.7969 79.7016 29.0781C79.1547 29.3438 78.6937 29.75 78.3187 30.2969C77.9125 30.875 77.6078 31.625 77.4047 32.5469C77.2172 33.4688 77.1234 34.5625 77.1234 35.8281V39.6016C77.1234 40.3516 77.1234 40.8516 77.1234 41.1016C77.1234 41.3516 77.1234 41.7188 77.1234 42.2031ZM86.2172 46V42.0391C86.2172 41.5234 86.2172 41.1484 86.2172 40.9141C86.2172 40.6641 86.2172 40.3125 86.2172 39.8594L77.1234 46.6094C77.1547 47.6406 77.2562 48.5547 77.4281 49.3516C77.6156 50.1484 77.8734 50.8125 78.2016 51.3438C78.5766 51.9844 79.0531 52.4609 79.6312 52.7734C80.2094 53.0859 80.8969 53.2422 81.6937 53.2422C82.4281 53.2422 83.0766 53.1094 83.6391 52.8438C84.2016 52.5625 84.6703 52.1406 85.0453 51.5781C85.4359 50.9844 85.725 50.2266 85.9125 49.3047C86.1156 48.3672 86.2172 47.2656 86.2172 46Z" fill="#010E2B"/>
</g>
</g>
<defs>
<filter id="filter0_di_649_222" x="0" y="0" width="121" height="78" filterUnits="userSpaceOnUse" color-interpolation-filters="sRGB">
<feFlood flood-opacity="0" result="BackgroundImageFix"/>
<feColorMatrix in="SourceAlpha" type="matrix" values="0 0 0 0 0 0 0 0 0 0 0 0 0 0 0 0 0 0 127 0" result="hardAlpha"/>
<feMorphology radius="2" operator="dilate" in="SourceAlpha" result="effect1_dropShadow_649_222"/>
<feOffset/>
<feGaussianBlur stdDeviation="1"/>
<feComposite in2="hardAlpha" operator="out"/>
<feColorMatrix type="matrix" values="0 0 0 0 1 0 0 0 0 0.9052 0 0 0 0 0.9052 0 0 0 0.5 0"/>
<feBlend mode="normal" in2="BackgroundImageFix" result="effect1_dropShadow_649_222"/>
<feBlend mode="normal" in="SourceGraphic" in2="effect1_dropShadow_649_222" result="shape"/>
<feColorMatrix in="SourceAlpha" type="matrix" values="0 0 0 0 0 0 0 0 0 0 0 0 0 0 0 0 0 0 127 0" result="hardAlpha"/>
<feMorphology radius="2" operator="erode" in="SourceAlpha" result="effect2_innerShadow_649_222"/>
<feOffset/>
<feGaussianBlur stdDeviation="2"/>
<feComposite in2="hardAlpha" operator="arithmetic" k2="-1" k3="1"/>
<feColorMatrix type="matrix" values="0 0 0 0 0.747512 0 0 0 0 0.592688 0 0 0 0 0.655832 0 0 0 1 0"/>
<feBlend mode="normal" in2="shape" result="effect2_innerShadow_649_222"/>
</filter>
<filter id="filter1_i_649_222" x="26.4609" y="23.3828" width="66.8184" height="35.6094" filterUnits="userSpaceOnUse" color-interpolation-filters="sRGB">
<feFlood flood-opacity="0" result="BackgroundImageFix"/>
<feBlend mode="normal" in="SourceGraphic" in2="BackgroundImageFix" result="shape"/>
<feColorMatrix in="SourceAlpha" type="matrix" values="0 0 0 0 0 0 0 0 0 0 0 0 0 0 0 0 0 0 127 0" result="hardAlpha"/>
<feOffset dx="0.5" dy="0.5"/>
<feGaussianBlur stdDeviation="1"/>
<feComposite in2="hardAlpha" operator="arithmetic" k2="-1" k3="1"/>
<feColorMatrix type="matrix" values="0 0 0 0 1 0 0 0 0 1 0 0 0 0 1 0 0 0 1 0"/>
<feBlend mode="normal" in2="shape" result="effect1_innerShadow_649_222"/>
</filter>
</defs>
</svg>
